<svg width="597" height="534" viewBox="0 0 597 534" fill="none" xmlns="http://www.w3.org/2000/svg">
<path fill-rule="evenodd" clip-rule="evenodd" d="M298.713 100.132C439.276 121.253 537.3 193.015 537.3 307.591C537.3 444.924 415.523 302.232 331.553 382.301C247.583 462.37 68.6833 464.64 60.1256 307.591C52.1145 160.574 158.149 79.0111 298.713 100.132Z" fill="#62C0B7" fill-opacity="0.8"/>
<path fill-rule="evenodd" clip-rule="evenodd" d="M226.861 322.147L264.044 279.125L264.898 279.729C270.389 283.591 274.744 286.136 277.962 287.364L278.915 287.725C294.374 293.542 305.004 295.518 303.296 296.884L301.181 298.584C287.517 309.617 268.808 325.661 245.055 346.716C241.802 349.851 237.419 351.863 232.683 352.4L227.785 352.923C179.704 358.014 148.857 358.453 137.553 356.214C135.192 355.747 127.926 356.968 122.44 361.897C114.211 369.29 102.444 387.1 100.467 387.1C97.5943 387.1 100.302 375.304 108.589 351.711L109.465 348.97C113.326 336.996 116.103 329.917 117.797 327.732C119.617 325.384 125.764 329.528 136.237 340.163L135.953 341.546C137.312 340.135 138.924 338.635 140.787 337.044L145.736 336.514C163.218 334.616 176.506 332.88 185.601 331.306L186.558 331.138C196.412 329.391 209.846 326.394 226.861 322.147Z" fill="white"/>
<path fill-rule="evenodd" clip-rule="evenodd" d="M458.408 277.576L472.233 286.895C474.886 288.68 476.831 291.184 477.78 294.032L480.399 301.878C481.631 304.252 480.553 307.071 477.955 308.272L473.072 311.512C469.932 312.962 466.104 311.392 465.279 308.316L462.531 299.572C462.531 299.572 450.88 296.406 449.33 284.003L458.408 277.576" fill="white"/>
<path fill-rule="evenodd" clip-rule="evenodd" d="M391.771 124.524C401.218 124.867 405.965 136.447 409.054 142.171C410.106 144.121 402.707 201.751 400.288 216.498C395.983 242.76 382.97 251.087 374.8 252.875C374.8 252.875 375.29 282.733 371.869 290.165C364.292 306.62 268.387 295.575 259.014 268.073C252.607 249.271 276.418 247.08 285.355 235.744C301.733 214.969 302.583 195.634 320.226 181.802C326.912 175.248 334.675 168.67 341.37 160.759L344.094 157.553C361.123 137.597 374.091 124.357 390.884 124.504L391.771 124.524Z" fill="white"/>
<path d="M268.63 267.106C274.121 265.47 284.293 265.648 289.615 268.702C291.651 269.871 294.329 271.442 296.233 270.603L296.371 270.547C297.68 270.066 300.741 270.074 301.691 270.13L301.866 270.143C305.062 270.46 305.757 270.719 306.516 271.214L307.06 271.583L307.371 271.69C308.526 272.092 309.751 272.568 311.047 273.117C311.582 273.074 312.198 272.949 312.926 272.716L313.234 272.62C318.726 270.985 326.163 271.943 331.485 274.997C333.521 276.165 336.2 277.737 338.103 276.898C341.408 275.44 347.363 276.733 355.969 280.778L356.796 281.171C354.364 281.572 343.199 276.487 337.899 278.824C336.219 279.565 333.937 278.429 332.024 277.349L330.953 276.74C325.903 273.968 319.08 273.032 313.793 274.34C310.944 275.4 306.218 272.593 301.662 272.071C297.106 271.548 296.976 272.701 293.557 272.018C292.233 271.753 290.118 270.925 287.211 269.534C282.057 267.321 272.924 267.59 268.117 269.128L267.858 269.208C262.72 270.728 262.763 269.063 267.93 267.329L268.321 267.201L268.63 267.106ZM264.195 258.139C274.239 256.186 280.667 256.353 283.48 258.639C285.052 259.916 288.111 259.066 290.429 258.445C296.486 256.821 303.929 257.733 308.704 260.659L308.972 260.826C309.6 261.23 310.153 261.503 310.654 261.676C312.069 261.467 313.393 261.313 314.627 261.21L314.959 261.184C316.265 260.737 316.522 260.489 320.395 261.08C321.074 261.184 324.592 262.036 325.669 262.91C327.24 264.187 330.299 263.337 332.616 262.716C338.673 261.093 348.505 263.429 353.28 266.355L353.548 266.523C358.338 269.601 357.956 271.361 353.375 268.567L353.149 268.426C349.003 265.762 340.307 263.252 334.671 264.109C334.671 264.109 329.836 265.039 327.805 264.931C324.308 264.745 324.538 263.604 319.998 262.984C315.457 262.363 310.049 263.896 307.638 262.174C302.958 259.613 296.111 258.831 290.402 260.251L289.185 260.572C287.014 261.138 284.469 261.668 283.083 260.541C278.709 256.988 266.41 259.124 264.195 258.139ZM271.359 247.458C281.402 245.506 287.831 245.673 290.644 247.958C292.216 249.235 295.275 248.385 297.592 247.764C303.763 246.11 311.375 247.088 316.136 250.147C320.927 253.225 329.33 248.7 335.519 250.401C339.169 251.403 342.228 254.518 345.803 253.62L346.042 253.555C349.05 252.653 355.995 254.3 366.879 258.495C362.701 258.762 350.633 254.075 345.974 255.363L345.644 255.457C341.967 256.56 338.853 253.328 335.122 252.303C328.933 250.602 320.529 255.127 315.738 252.049C311.073 249.052 303.669 248.053 297.566 249.571L296.349 249.892C294.178 250.459 291.633 250.988 290.247 249.862C285.873 246.308 273.573 248.443 271.359 247.458ZM283.299 235.355C292.254 233.402 297.986 233.569 300.495 235.855C301.896 237.131 304.624 236.281 306.69 235.66C312.193 234.006 318.979 234.985 323.224 238.043C327.496 241.121 334.99 236.596 340.509 238.296C343.763 239.299 346.491 242.414 349.678 241.517L349.891 241.45C352.574 240.549 358.768 242.195 368.472 246.391C364.747 246.657 353.986 241.971 349.832 243.258L349.536 243.354C346.257 244.456 343.481 241.225 340.154 240.199C334.636 238.499 327.142 243.024 322.87 239.946C318.71 236.948 312.109 235.949 306.667 237.467L305.582 237.788C303.646 238.355 301.377 238.883 300.141 237.757C296.24 234.204 285.273 236.34 283.299 235.355ZM292.851 219.691C300.635 217.738 305.617 217.905 307.798 220.191C309.016 221.467 311.386 220.617 313.182 219.996C317.965 218.342 323.863 219.321 327.553 222.379C331.265 225.457 337.779 220.932 342.575 222.632C345.403 223.635 347.775 226.75 350.545 225.853L350.73 225.786C353.062 224.884 358.445 226.531 366.879 230.727C363.641 230.993 354.289 226.306 350.679 227.594L350.422 227.69C347.572 228.792 345.159 225.561 342.267 224.535C337.471 222.835 330.957 227.359 327.244 224.281C323.628 221.284 317.892 220.285 313.162 221.803L312.219 222.124C310.536 222.691 308.564 223.219 307.489 222.093C304.099 218.54 294.568 220.675 292.851 219.691ZM296.831 205.45C304.188 203.498 308.898 203.665 310.959 205.95C312.11 207.227 314.351 206.377 316.049 205.756C320.57 204.102 326.145 205.08 329.633 208.139C333.142 211.217 339.299 206.692 343.833 208.393C346.506 209.396 348.748 212.51 351.366 211.613L351.541 211.547C353.744 210.645 358.833 212.291 366.806 216.487C363.745 216.753 354.905 212.066 351.492 213.354L351.25 213.449C348.556 214.552 346.275 211.32 343.542 210.295C339.008 208.595 332.851 213.119 329.342 210.041C325.924 207.044 320.501 206.045 316.03 207.563L315.139 207.884C313.548 208.451 311.684 208.98 310.668 207.854C307.464 204.3 298.453 206.435 296.831 205.45ZM313.171 186.381C317.663 184.611 323.467 185.93 326.409 189.462C327.505 190.777 329.781 190.006 331.504 189.444C336.093 187.946 341.622 189.114 344.975 192.29C348.35 195.486 354.697 191.177 359.154 193.031C361.841 194.15 363.982 197.457 366.722 196.448C370.083 195.209 374.208 195.87 376.907 198.037L376.897 198.721L376.886 200.228C374.203 197.824 369.859 197.045 366.349 198.339C363.609 199.349 361.468 196.041 358.781 194.923C354.324 193.068 347.977 197.378 344.602 194.182C341.316 191.069 335.94 189.885 331.407 191.248L330.503 191.538C328.889 192.05 327.004 192.514 326.037 191.354C322.988 187.693 316.864 186.41 312.313 188.478L312.901 186.491L313.171 186.381ZM326.004 172.953C329.335 169.094 337.172 169.686 339.734 173.99C340.55 175.361 342.84 175.152 344.404 174.477L345.505 173.985L345.878 173.822C347.002 173.344 348.162 172.985 349.302 173.327C351.071 173.859 351.756 175.792 353.262 176.778C355.313 178.121 358.147 177.376 360.681 177.191C363.162 177.009 366.391 178.246 366.126 180.401L366.104 180.539C365.861 181.826 367.327 182.924 368.77 183.12C370.214 183.317 371.668 182.927 373.125 182.84C376.03 182.667 378.996 183.79 380.884 185.771L380.555 187.707C380.522 188.049 380.484 188.391 380.441 188.735C380.336 187.144 379.046 185.654 377.411 184.934C375.507 184.096 373.26 184.129 371.18 184.499L370.296 184.661C369.406 184.817 368.505 184.917 367.67 184.639C364.844 183.696 365.079 179.389 362.242 178.474C359.984 177.746 357.604 179.802 355.248 179.396C352.525 178.925 351.426 175.51 348.7 175.051C346.325 174.651 344.159 176.755 341.755 176.544C339.258 176.325 337.906 173.845 335.785 172.647C332.926 171.032 329.201 171.97 326.004 172.953Z" fill="#F09261"/>
<path fill-rule="evenodd" clip-rule="evenodd" d="M388.723 133.193C402.153 133.234 412.752 143.425 411.846 155.422C411.846 155.422 396.186 216.362 404.124 238.022C407.194 246.402 451.529 272.478 449.655 275.157L443.399 288.565C441.176 291.739 373.128 251.023 373.128 251.023C366.599 246.388 365.386 154.224 365.386 154.224C365.257 142.617 375.758 133.152 388.723 133.193Z" fill="white"/>
<path d="M459.211 277.576L451.214 292.305L451.054 292.699C450.389 294.225 447.846 295.159 447.519 295.234L447.471 295.234L442.748 292.734C442.207 292.328 441.911 290.047 442.483 287.926L442.617 287.48C442.617 287.48 446.361 275.716 449.462 272.746C451.271 271.013 461.716 272.746 459.211 277.576Z" fill="white"/>
<path fill-rule="evenodd" clip-rule="evenodd" d="M345.288 413.409H326.196C326.196 413.409 348.602 361.376 348.602 347.721C348.602 343.486 330.99 349.867 333.545 343.486C337.058 334.712 349.215 319.022 346.221 311.146C343.089 302.91 331.409 299.925 321.237 296.587C319.288 295.948 354.844 298.156 364.596 291.217C377.461 282.063 367.016 261.849 370.471 268.976C374.639 277.576 401.725 299.149 396.356 322.511C391.125 345.27 345.288 413.409 345.288 413.409Z" fill="white"/>
<path fill-rule="evenodd" clip-rule="evenodd" d="M338.669 423.443L336.708 422.86C336.62 422.834 336.611 422.714 336.693 422.675L338.564 421.765V419.659C338.564 419.576 338.66 419.529 338.726 419.581L340.301 420.819L342.896 419.596C342.986 419.554 343.076 419.654 343.024 419.739L341.563 422.123L344.342 424.72C344.418 424.791 344.349 424.916 344.249 424.89L340.403 423.898L338.854 426.339C338.8 426.424 338.669 426.386 338.669 426.285V425.036V423.443Z" fill="#F09261"/>
<path d="M180.18 469.221C204.813 469.221 229.446 469.222 254.079 469.217C255.216 469.216 256.358 469.125 256.31 470.494C256.273 471.56 255.566 472.046 253.922 472.046C243.561 472.046 233.2 472.046 222.68 472.046C208.303 472.046 194.083 472.048 179.864 472.042C178.972 472.041 177.984 472.238 177.623 471.184C177.262 470.13 177.756 469.364 179.071 469.226C179.435 469.188 179.81 469.221 180.18 469.221ZM459.529 469.226C484.157 469.226 508.785 469.226 533.413 469.226C535.404 469.226 535.956 469.723 535.613 471.243C535.568 471.44 535.381 471.732 535.193 471.771C534.515 471.912 533.808 472.038 533.112 472.039C524.656 472.056 516.2 472.051 507.586 472.051C491.414 472.051 475.401 472.051 459.387 472.048C458.518 472.048 457.59 472.19 457.12 471.301C456.581 470.281 457.065 469.439 458.422 469.234C458.779 469.18 459.159 469.226 459.529 469.226ZM268.635 468.498C269.459 468.541 270.285 468.608 271.11 468.608C329.406 468.613 387.702 468.612 445.998 468.628C446.513 468.628 447.231 468.726 447.496 468.994C447.886 469.39 448.288 470.312 448.1 470.43C447.396 470.863 446.453 471.304 445.598 471.307C437.671 471.331 429.743 471.34 421.815 471.343H339.366C316.058 471.343 292.909 471.342 269.76 471.344C268.56 471.344 267.336 471.319 266.739 470.331C266.324 469.643 267.628 468.445 268.635 468.498ZM478.285 416.653C479.61 416.517 481.015 416.43 482.3 416.674C484.34 417.062 485.187 418.813 484.563 420.643C483.429 423.97 481.162 426.502 477.864 428.299C473.342 430.762 468.792 433.184 464.175 435.695C456.772 438.365 449.386 440.838 442.152 443.621C438.912 444.867 435.666 445.059 432.292 444.97C431.697 444.954 431.108 444.722 430.516 444.723C430.158 444.723 429.799 444.98 429.441 445.121C429.627 445.382 429.762 445.695 430.01 445.894C430.498 446.285 431.006 446.685 431.58 446.954C435.953 449.003 438.481 454.596 436.935 458.792C436.177 460.852 435.259 463.039 433.722 464.642C432.473 465.947 430.294 466.807 428.35 467.259C425.281 467.972 422.077 467.994 418.981 466.99C416.275 466.112 414.332 464.487 412.899 462.292C409.418 456.957 410.848 452.329 414.551 448.021C415.308 447.14 416.789 446.767 417.889 446.099C418.297 445.852 418.572 445.429 418.907 445.087C418.333 444.96 417.764 444.753 417.185 444.731C416.65 444.711 416.105 444.969 415.564 444.97C389.972 444.983 364.379 445.004 338.787 444.968C330.229 444.956 321.67 444.781 313.112 444.702C309.703 444.671 306.294 444.697 302.885 444.697C302.019 444.697 301.151 444.68 300.287 444.71C300.093 444.717 299.906 444.886 299.717 444.98C299.897 445.094 300.073 445.217 300.26 445.321C301.944 446.259 303.885 446.96 305.27 448.169C311.737 453.814 309.652 464.973 299.976 467.209C292.148 469.018 285.23 466.689 282.906 458.373C281.474 453.247 285.304 447.135 291.097 445.533C291.465 445.432 291.758 445.116 292.086 444.9C291.751 444.738 291.417 444.436 291.081 444.434C283.443 444.408 276.284 442.421 269.264 440.046C259.835 436.855 250.667 433.134 242.178 428.224C240.561 427.288 238.849 426.356 238.276 424.396C237.24 420.851 239.244 418.116 242.945 417.218C246.886 416.261 250.664 417.268 254.385 418.336C264.436 421.22 274.476 424.135 284.521 427.033C286.625 427.64 288.728 428.252 290.849 428.806C291.569 428.993 292.345 429.088 293.096 429.091C299.561 429.112 306.026 429.097 312.49 429.118C312.968 429.12 313.789 429.239 313.859 429.455C314.068 430.104 313.984 430.828 314.013 431.523C313.864 431.477 313.708 431.383 313.564 431.394C312.655 431.468 311.751 431.606 310.841 431.648C306.425 431.853 302.007 432.009 297.593 432.229C293.111 432.453 288.885 431.319 284.697 430.2C279.624 428.844 274.652 427.192 269.622 425.707C264.727 424.262 259.804 422.891 254.914 421.434C253.199 420.924 251.59 419.967 249.846 419.735C247.876 419.474 245.765 419.615 243.801 419.962C243.032 420.097 242.171 421.191 241.929 421.987C241.606 423.05 241.826 424.098 243.217 424.889C249.671 428.559 256.475 431.602 263.463 434.363C269.811 436.872 276.365 438.828 283.059 440.422C284.133 440.677 285.294 440.699 286.418 440.718C293.315 440.833 300.215 440.844 307.109 441.032C314.134 441.224 321.152 441.581 328.174 441.861C333.013 442.054 337.855 442.232 342.694 442.432C344.4 442.503 346.107 442.73 347.806 442.682C349.578 442.631 351.337 442.265 353.11 442.172C354.116 442.119 355.139 442.404 356.156 442.416C359.229 442.452 362.308 442.534 365.374 442.403C369.645 442.221 373.904 441.806 378.176 441.615C379.346 441.563 380.538 442.097 381.725 442.119C385.539 442.189 389.356 442.182 393.17 442.135C396.889 442.088 400.609 442.001 404.324 441.843C406.149 441.765 408.002 441.176 409.777 441.349C416.946 442.044 424.154 441.864 431.314 442.285C436.579 442.595 441.243 441.47 445.86 439.782C452.11 437.497 458.309 435.077 464.39 432.459C468.424 430.722 472.264 428.607 476.097 426.525C478.402 425.274 480.161 423.507 480.884 421.081C481.248 419.857 480.486 418.922 479.115 418.894C474.86 418.811 470.975 420.132 467.112 421.462C461.495 423.396 455.9 425.386 450.325 427.414C446.382 428.848 442.492 430.399 438.562 431.863C437.975 432.082 437.299 432.205 436.663 432.207C429.881 432.231 423.098 432.223 416.316 432.223C410.893 432.223 405.47 432.227 400.048 432.219C398.693 432.216 397.337 432.176 395.983 432.131C395.897 432.127 395.757 431.934 395.748 431.823C395.718 431.447 395.799 431.058 395.724 430.692C395.54 429.784 395.975 429.644 396.912 429.649C403.588 429.689 410.265 429.708 416.941 429.66C423.256 429.615 429.577 429.603 435.881 429.315C437.823 429.227 439.78 428.413 441.621 427.707C451.393 423.957 461.265 420.439 471.437 417.647C473.628 417.046 475.987 416.89 478.285 416.653ZM297.185 447.908C292.084 447.248 287.887 449.766 286.681 455.046C286.681 455.864 286.629 456.685 286.689 457.499C287.029 462.093 292.992 465.663 298.25 464.311C301.992 463.349 304.15 461.35 304.915 457.84C306.087 452.455 302.349 448.577 297.185 447.908ZM431.665 451.076C427.949 447.458 423.656 446.793 418.537 449.439C415.579 450.968 414.281 454.565 414.529 456.844C414.797 459.297 416.168 461.332 418.262 462.926C420.775 464.837 423.713 464.841 426.739 464.259C433.46 462.966 435.477 455.157 431.665 451.076ZM421.31 454.931C422.311 452.71 424.513 452.166 426.619 453.71C427.815 456.138 427.733 457.131 426.308 458.451C425.336 459.352 423.574 459.506 422.469 458.785C421.289 458.015 420.741 456.194 421.31 454.931ZM292.507 454.437C294.78 452.444 296.632 452.358 298.49 453.896C299.378 454.632 299.65 456.47 298.7 457.391C297.787 458.277 296.807 458.714 295.154 458.453C292.084 457.969 291.678 456.152 292.507 454.437ZM454.008 56.2509C456.947 56.3392 458.459 58.0564 459.898 60.0184C461.519 62.2278 462.832 64.5314 463.283 67.1649C463.832 70.3713 463.537 73.3496 460.988 75.9901C458.915 78.1377 456.501 79.7797 453.775 81.1571C453.413 81.3399 453.184 82.3078 453.385 82.7216C455.439 86.9602 455.592 91.4289 455.391 95.9149C455.296 98.0354 454.638 100.134 454.513 102.256C454.339 105.216 455.016 108.063 456.344 110.816C457.244 112.684 456.611 114.453 455.101 115.921C454.479 116.526 453.486 116.894 453.052 117.57C452.479 118.465 452.079 119.542 451.986 120.568C451.871 121.841 452.19 123.142 452.24 124.432C452.314 126.338 451.504 127.967 450.412 129.594C448.435 132.536 445.825 134.701 442.039 135.41C438.794 136.017 435.425 136.054 432.292 135.099C428.735 134.014 425.267 132.626 421.92 131.091C420.544 130.46 419.582 129.101 418.437 128.069C417.913 127.597 417.648 127.46 416.952 128.12C414.464 130.477 412.656 133.155 411.194 136.111C410.356 137.806 410.953 139.188 411.533 140.68C412.355 142.796 413.237 144.885 413.173 147.197C413.096 149.964 413.373 152.752 413.092 155.498C412.833 158.02 412.048 160.502 411.476 162.997C410.775 166.056 410.133 169.129 409.312 172.163C408.793 174.082 407.921 175.923 407.337 177.831C405.847 182.694 404.263 187.541 403.042 192.46C402.21 195.81 401.729 199.256 401.45 202.682C401.179 206.01 401.392 209.367 401.338 212.711C401.304 214.755 401.077 216.798 401.096 218.841C401.129 222.314 401.108 225.8 401.449 229.254C401.745 232.247 402.379 235.23 403.113 238.167C403.716 240.579 405.565 242.444 407.4 244.192C409.023 245.739 410.948 247.03 412.665 248.503C413.75 249.434 414.593 250.605 415.732 251.472C419.356 254.229 423.088 256.872 426.739 259.602C429.579 261.726 432.334 263.941 435.175 266.063C437.126 267.522 439.105 268.961 441.173 270.282C443.153 271.548 445.324 272.575 447.297 273.849C448.915 274.893 450.046 273.743 451.332 273.354C454.009 272.546 456.127 272.85 457.132 275.153C457.699 276.453 459.107 277.385 459.031 279.047C459.012 279.463 460.26 279.978 460.983 280.359C463.023 281.436 465.087 282.475 467.152 283.512C468.44 284.158 469.86 284.641 471.017 285.434C472.571 286.5 473.837 287.902 475.391 288.967C477.582 290.467 478.476 292.739 479.832 294.704C480.837 296.161 481.417 297.95 481.752 299.66C482.202 301.964 482.386 304.335 482.375 306.676C482.37 307.654 481.707 308.704 481.098 309.586C480.442 310.536 479.459 310.672 478.51 309.754C478.397 309.644 478.216 309.589 478.066 309.509C478.043 309.69 478.025 309.872 477.997 310.053C477.786 311.414 477.726 312.816 477.295 314.119C477.089 314.74 476.198 315.561 475.58 315.588C474.915 315.616 474.2 314.827 473.52 314.379C473.309 314.24 473.133 314.055 472.957 313.878C472.813 313.733 472.692 313.57 472.561 313.415C472.466 313.595 472.376 313.777 472.275 313.954C471.986 314.464 471.813 315.086 471.377 315.458C470.21 316.451 468.641 316.064 468.16 314.669C467.563 312.938 467.207 311.135 466.519 309.437C465.873 307.842 465.668 306.12 464.168 304.748C463.05 303.725 462.535 302.163 461.792 300.823C460.538 298.565 458.467 297.088 456.071 295.896C455.419 295.572 454.771 295.215 454.205 294.785C452.949 293.83 452.079 294.351 451.315 295.322C450.053 296.928 447.96 297.518 446.014 296.594C443.032 295.177 440.596 293.316 439.786 290.129C439.636 289.539 438.663 289.018 437.949 288.658C432.24 285.778 426.44 283.041 420.793 280.068C415.957 277.523 411.257 274.764 406.549 272.029C398.482 267.344 390.452 262.609 382.415 257.884C379.912 256.412 377.438 254.901 374.943 253.417C374.533 253.173 374.101 252.953 373.656 252.766C372.33 252.205 371.941 252.408 371.835 253.68C371.831 253.727 371.834 253.775 371.834 253.822C371.728 260.522 371.625 267.221 371.514 273.921C371.483 275.809 372.819 277.167 373.854 278.601C377.049 283.028 380.311 287.418 383.605 291.786C385.873 294.793 388.347 297.679 390.507 300.745C391.454 302.09 391.854 303.747 392.493 305.266C392.821 306.046 393.217 306.814 393.434 307.619C394.717 312.368 394.139 317.08 392.871 321.74C391.995 324.959 391.162 328.212 389.889 331.311C388.524 334.637 386.656 337.797 385.029 341.038C384.106 342.878 383.213 344.73 382.331 346.586C380.835 349.732 379.346 352.882 377.876 356.038C376.273 359.477 374.831 362.983 373.069 366.354C371.134 370.058 368.954 373.66 366.81 377.273C364.501 381.167 362.077 385.006 359.764 388.898C357.618 392.511 355.589 396.18 353.434 399.788C351.853 402.435 350.196 405.049 348.49 407.634C347.07 409.785 347.481 410.788 349.124 412.769C350.905 414.917 353.673 415.635 356.418 416.196C364.074 417.761 371.747 419.259 379.419 420.76C381.033 421.075 382.691 421.221 384.3 421.557C388.549 422.448 390.682 425.244 391.819 428.713C392.547 430.933 392.761 433.316 390.785 435.16C390.038 435.857 388.675 436.374 387.591 436.378C364.812 436.446 342.032 436.422 319.254 436.456C318.228 436.457 318.154 436.181 318.076 435.375C317.881 433.348 317.172 431.33 317.221 429.32C317.363 423.573 319.615 418.425 323.554 413.905C324.154 413.217 325.545 413.018 325.998 412.303C327.146 410.486 328.132 408.553 328.886 406.576C330.096 403.409 331.297 400.213 332.073 396.947C332.872 393.583 334.468 390.449 335.08 387.013C335.549 384.379 337.007 381.871 338.145 379.35C340.495 374.148 343.043 369.014 345.283 363.775C346.809 360.207 347.925 356.499 349.275 352.869C350.314 350.078 351.368 347.288 352.557 344.548C352.874 343.818 352.606 343.938 352.068 343.874C347.05 343.277 342.105 343.33 337.425 345.328C336.399 345.766 335.677 345.675 334.998 344.913C334.304 344.134 334.666 343.566 335.279 342.851C338.937 338.59 341.209 333.737 342.952 328.617C344.236 324.845 345.777 321.135 345.741 317.138C345.718 314.54 345.002 312.211 343.006 310.038C341.258 308.135 340.071 305.866 337.328 304.842C335.204 304.049 333.139 303.131 331.013 302.344C326.943 300.836 322.895 299.26 318.747 297.945C315.824 297.018 312.749 296.475 309.743 295.758C309.411 295.678 309.086 295.574 308.755 295.489C306.616 294.943 304.749 295.038 303.297 296.884C302.533 297.854 301.427 298.609 300.317 299.461C296.862 302.509 293.559 305.553 290.27 308.607C287.87 310.836 285.552 313.138 283.08 315.301C280.053 317.948 276.996 320.58 273.784 323.043C269.8 326.097 265.716 329.058 261.541 331.9C256.815 335.116 251.977 338.203 247.116 341.255C244.371 342.978 241.716 344.837 238.201 345.373C236.567 345.622 235.123 346.74 233.497 347.182C228.529 348.529 223.535 349.811 218.51 350.975C215.425 351.69 212.275 352.199 209.133 352.689C207.176 352.994 195.973 354.587 188.521 355.555C181.068 356.522 156.421 356.522 150.267 356.407C146.814 356.343 143.362 356.236 139.911 356.118C139.157 356.092 138.334 356.087 137.671 355.818C134.2 354.411 131.532 356.014 128.808 357.566C125.319 359.554 123.183 362.546 121.073 365.609C118.745 368.989 116.129 372.21 113.824 375.6C111.957 378.346 110.329 381.223 108.66 384.073C106.797 387.255 104.001 389.106 99.991 389.791C97.2592 390.257 95.0638 389.09 92.6804 388.531C91.4192 388.235 90.4025 385.187 90.8523 383.98C94.9095 373.1 98.9923 362.226 103.022 351.337C105.463 344.741 107.83 338.123 110.218 331.512C110.883 329.669 111.461 327.798 112.184 325.974C112.332 325.602 112.944 325.143 113.36 325.128C116.367 325.02 119.254 325.679 121.997 326.685C127.183 328.589 131.173 331.8 134.102 336.074C134.879 337.207 136.235 337.614 137.944 337.345C140.029 337.015 142.162 336.89 144.216 336.454C148.752 335.491 153.38 336.058 157.945 335.64C160.815 335.377 163.721 335.376 166.575 335.025C170.952 334.487 175.297 333.742 179.658 333.095C182.982 332.601 186.322 332.188 189.63 331.62C192.75 331.084 195.844 330.417 198.939 329.766C203.087 328.892 207.224 327.979 211.365 327.083C211.557 327.041 211.748 326.996 211.94 326.952C211.731 326.851 211.514 326.76 211.312 326.648C209.919 325.879 208.391 325.249 207.17 324.302C205.261 322.82 205.913 320.359 208.34 319.703C210.19 319.203 212.096 318.702 214.007 318.587C217.613 318.37 220.771 316.956 224.116 316.019C226.378 315.386 227.736 314.195 228.872 312.373C229.804 310.878 231.475 309.769 232.644 308.372C235.146 305.381 237.579 302.341 239.947 299.265C240.836 298.11 241.414 296.768 242.232 295.565C243.063 294.343 243.909 293.106 244.935 292.017C247.334 289.473 249.736 286.917 252.345 284.551C254.401 282.686 256.771 281.101 258.993 279.383C259.353 279.104 259.698 278.803 260.001 278.475C260.52 277.913 260.733 277.445 259.95 276.78C257.713 274.883 255.334 273.042 254.103 270.421C253.098 268.279 252.013 266.124 251.434 263.877C250.746 261.205 251.024 258.484 251.915 255.791C253.161 252.023 255.77 249.167 259.303 247.118C263.099 244.917 267.239 243.197 271.13 241.118C272.531 240.369 273.711 239.246 274.877 238.191C280.195 233.379 283.729 227.448 287.436 221.662C290.662 216.627 293.557 211.417 296.442 206.215C298.008 203.392 299.151 200.382 300.669 197.536C301.645 195.705 303.016 194.045 304.099 192.256C305.339 190.209 306.308 188.019 307.682 186.053C308.522 184.852 309.899 183.951 311.047 182.927C311.909 182.157 312.803 181.415 313.664 180.644C314.439 179.951 315.204 179.248 315.947 178.527C320.896 173.722 325.94 168.99 330.752 164.077C334.763 159.981 338.579 155.725 342.327 151.432C344.481 148.965 346.328 146.283 348.311 143.696C348.395 143.587 348.444 143.453 348.542 143.356C351.791 140.155 354.926 136.852 358.328 133.787C361.868 130.597 365.924 127.952 370.325 125.749C372.053 124.884 373.623 123.717 375.428 123.034C377.771 122.148 380.265 121.077 382.716 121.032C387.311 120.948 392.089 120.995 395.947 123.9C396.678 124.451 396.873 124.321 396.942 123.585C397.161 121.244 398.129 118.67 397.354 116.629C396.656 114.789 396.927 112.912 396.111 111.149C394.446 107.552 392.987 103.876 391.498 100.215C391.094 99.2211 390.766 98.1769 390.616 97.1317C390.399 95.6178 390.474 94.07 390.249 92.5575C389.77 89.3347 391.335 86.5743 392.533 83.7137C394.786 78.3347 399.008 74.2665 403.566 70.4462C407.491 67.157 413.992 66.1216 419.25 65.3104C421.825 64.9131 444.962 64.5389 446.384 64.4725C447.803 64.4062 448.765 63.8157 449.726 63.1815C451.907 61.7434 452.307 59.4345 452.872 57.2548C453.026 56.658 453.051 56.2221 454.008 56.2509ZM323.188 431.874C322.871 431.874 322.449 431.758 322.257 431.897C321.803 432.224 321.397 432.642 321.122 433.097C321.065 433.193 321.613 433.767 321.953 433.835C322.892 434.022 323.868 434.138 324.83 434.14C338.326 434.158 351.822 434.152 365.476 434.01C367.792 433.867 370.107 433.691 372.425 433.59C377.31 433.377 382.2 433.215 387.085 432.985C387.406 432.97 387.704 432.557 388.012 432.329C387.733 432.177 387.471 431.98 387.17 431.889C386.933 431.816 386.646 431.874 386.382 431.874H323.188ZM346.255 414.256C345.499 413.051 344.838 413.142 344.076 414.467C343.415 415.614 342.597 416.622 341.292 417.221C340.597 417.539 339.862 417.796 339.125 418.029C335.466 419.189 331.906 419.336 328.698 416.99C327.134 415.847 326.624 415.952 325.404 417.375C323.374 419.743 322.362 422.515 321.326 425.263C320.241 428.14 320.83 428.741 324.25 428.741H385.588C386.011 428.741 386.492 428.853 386.842 428.709C387.156 428.579 387.577 427.964 387.524 427.912C386.611 427.017 385.783 425.909 384.632 425.387C382.901 424.601 380.961 424.136 379.062 423.706C372.055 422.119 365.027 420.603 357.689 419.059C356.55 418.775 355.416 418.469 354.269 418.209C351.214 417.515 348.031 417.089 346.255 414.256ZM379.649 343.055C379.363 343.105 379.069 343.135 378.791 343.209C377.613 343.522 376.456 344.046 375.26 344.13C372.244 344.342 369.21 344.433 366.183 344.432C363.104 344.432 360.024 344.253 356.943 344.189C356.719 344.185 356.367 344.436 356.277 344.641C355.413 346.597 354.53 348.55 353.772 350.541C352.127 354.865 350.531 359.205 348.954 363.551C346.952 369.068 344.488 374.392 341.773 379.675C339.256 384.573 337.38 389.788 336.188 395.156C335.498 398.267 334.396 401.308 333.396 404.358C332.567 406.889 331.62 409.389 330.716 411.899C330.166 413.426 330.65 414.85 331.991 415.036C333.486 415.243 335.029 415.168 336.711 415.073C338.238 414.884 339.549 414.256 340.412 413.147C342.056 411.035 343.612 408.863 345.121 406.67C346.492 404.676 347.774 402.633 349.055 400.591C352.865 394.519 357.156 388.693 360.331 382.294C362.218 378.49 364.547 374.863 366.665 371.15C367.87 369.037 369.162 366.956 370.218 364.784C371.7 361.732 372.721 358.476 374.446 355.547C376.671 351.77 377.902 347.712 379.459 343.74C379.545 343.519 379.587 343.283 379.649 343.055ZM121.917 330.228C120.596 329.513 119.38 329.938 118.855 331.186C117.906 333.444 116.911 335.689 116.059 337.976C114.599 341.898 113.285 345.865 111.816 349.784C110.068 354.45 108.907 359.264 106.681 363.821C103.382 370.576 100.715 377.562 99.4529 384.902C99.3862 385.29 99.4795 385.956 99.7361 386.073C100.126 386.251 100.793 386.186 101.22 386C101.932 385.689 102.681 385.299 103.179 384.766C104.744 383.095 106.199 381.342 107.697 379.336C112.041 373.119 116.443 366.934 120.7 360.67C122.359 358.229 124.069 356.019 127.442 355.359C128.694 355.114 128.763 354.53 127.933 353.593C127.098 352.649 126.049 351.722 125.667 350.627C125.26 349.463 125.465 348.108 125.51 346.84C125.619 343.734 126.599 341.084 130.037 339.575C131.057 339.127 131.669 338.453 130.646 337.133C128.341 334.158 125.285 332.052 121.917 330.228ZM115.266 328.791C114.858 329.032 114.246 329.191 114.073 329.529C112.954 331.72 111.86 333.926 110.894 336.174C109.857 338.589 108.949 341.051 108.02 343.503C107.043 346.082 106.043 348.657 105.17 351.266C103.84 355.236 102.631 359.24 101.334 363.22C100.287 366.432 99.2888 369.663 98.0798 372.827C96.6222 376.642 94.9647 380.396 93.5525 384.319C94.7457 385.728 95.2023 385.74 95.9607 384.124C97.0977 381.701 98.1777 379.247 99.0886 376.75C100.249 373.568 101.149 370.309 102.285 367.119C103.925 362.516 105.719 357.956 107.369 353.355C109.532 347.325 111.617 341.271 113.737 335.228C114.37 333.424 115.037 331.628 115.613 329.809C115.704 329.523 115.392 329.133 115.266 328.791ZM217.709 330.391C217.117 329.422 216.445 329.012 215.306 329.367C207.939 331.668 200.175 332.379 192.619 333.92C188.373 334.786 167.004 338.073 165.139 338.193C162.471 338.365 159.803 338.745 157.138 338.719C152.643 338.674 148.236 339.107 143.833 339.871C140.859 340.387 137.795 340.498 134.839 341.071C129.764 342.055 128.063 345.931 129.371 349.718C129.622 350.445 130.519 351.265 131.324 351.519C134.995 352.681 138.838 352.983 142.722 353.011C145.487 353.03 148.25 353.18 151.013 353.281C156.117 353.467 161.221 353.661 166.325 353.849C166.642 353.86 166.961 353.84 167.278 353.851C169.777 353.943 172.289 354.229 174.772 354.092C178.687 353.875 182.581 353.369 186.485 352.998C188.621 352.795 190.773 352.696 192.893 352.408C196.614 351.902 200.346 351.411 204.017 350.686C208.652 349.772 213.231 348.63 218.151 347.586C218.531 347.491 218.908 347.38 219.293 347.303C222.64 346.634 225.991 345.984 229.333 345.294C229.814 345.194 230.25 344.915 230.707 344.719C230.303 344.505 229.877 344.317 229.501 344.07C229.205 343.876 228.955 343.62 228.71 343.372C226.353 340.982 223.875 338.676 221.69 336.165C220.146 334.39 218.92 332.376 217.709 330.391ZM262.584 278.917C262.519 278.868 262.22 278.933 262.187 279.003C260.71 282.196 257.669 284.141 254.97 286.382C252.611 288.341 250.27 290.349 248.202 292.548C246.375 294.491 244.919 296.718 243.33 298.838C241.662 301.061 239.671 303.163 238.464 305.575C236.55 309.398 233.584 312.444 230.487 315.412C227.16 318.601 222.514 319.602 218.058 320.789C215.728 321.41 213.293 321.715 210.914 322.193C210.601 322.256 210.335 322.502 210.047 322.664C210.358 322.998 210.694 323.636 210.978 323.618C213.483 323.459 215.186 324.961 217.051 325.987C218.965 327.041 220.845 328.177 221.96 330.14C222.905 331.803 224.276 333.278 225.51 334.803C226.787 336.379 228.125 337.916 229.594 339.612C231.08 340.848 232.557 342.093 234.063 343.309C234.233 343.446 234.62 343.534 234.81 343.457C237.797 342.239 240.964 341.264 243.704 339.694C249.894 336.146 255.817 332.226 261.952 328.597C268.98 324.439 274.973 319.2 281.17 314.17C283.077 312.621 284.848 310.934 286.645 309.28C289.161 306.965 291.643 304.621 294.139 302.29C296.649 299.947 299.186 297.626 301.623 295.224C301.848 295.002 301.566 293.894 301.308 293.824C298.85 293.158 296.292 292.768 293.866 292.029C288.022 290.249 282.164 288.478 276.444 286.409C271.412 284.589 266.751 282.089 262.584 278.917ZM371.122 280.952C370.83 281.351 370.376 281.72 370.275 282.155C369.978 283.437 369.869 284.752 369.599 286.04C368.881 289.473 367.043 292.111 363.427 293.808C358.44 296.149 353.081 297.148 347.604 297.711C344.447 298.035 341.23 298.088 338.051 297.995C335.103 297.909 332.17 297.454 329.227 297.199C328.82 297.164 328.39 297.341 327.97 297.42C328.257 297.626 328.536 297.84 328.834 298.033C328.949 298.108 329.104 298.132 329.4 298.322C330.169 298.607 330.971 298.837 331.702 299.185C335.297 300.897 339.592 301.397 342.516 304.287C343.488 305.247 344.704 306.005 345.764 306.897C347.347 308.229 347.743 310.074 348.309 311.834C349.615 315.897 349.319 320.1 348.174 323.996C346.571 329.445 345.033 335.015 341.634 339.912C341.257 340.454 341.061 340.744 342.094 340.77C347.939 340.92 353.781 341.166 359.627 341.307C362.873 341.384 366.124 341.3 369.373 341.327C372.844 341.356 376.216 340.907 379.375 339.59C380.533 339.107 382.004 338.587 382.551 337.698C383.792 335.679 384.671 333.457 385.472 331.252C386.645 328.025 387.807 324.777 388.624 321.469C389.322 318.644 389.674 315.73 389.892 312.839C390.01 311.277 389.384 309.681 389.346 308.096C389.277 305.182 387.648 302.84 386.109 300.464C385.504 299.53 384.597 298.757 383.922 297.854C379.925 292.51 375.958 287.146 371.97 281.796C371.738 281.484 371.407 281.232 371.122 280.952ZM459.427 281.566C459.122 281.419 458.745 281.148 458.413 281.798C456.951 284.656 455.259 287.424 453.929 290.327C453.634 290.973 452.889 292.275 454.716 292.975C456.562 293.683 458.378 294.701 459.835 295.935C464.233 299.662 466.154 304.677 468.125 309.621C468.67 310.989 468.987 312.431 469.413 313.838C469.486 314.079 469.578 314.315 469.661 314.554C469.945 314.368 470.375 314.236 470.491 313.987C471.3 312.248 471.544 310.499 470.941 308.609C470.447 307.061 470.279 305.421 470.103 303.809C470.073 303.53 470.723 303.191 471.059 302.879C471.287 303.147 471.631 303.387 471.724 303.688C472.108 304.927 472.417 306.184 472.912 307.577C473.336 309.316 473.709 311.068 474.224 312.785C474.33 313.136 474.968 313.359 475.36 313.641C475.616 313.318 476.073 313.003 476.092 312.669C476.173 311.177 476.401 309.628 476.068 308.195C475.55 305.966 474.736 303.772 473.811 301.646C473.413 300.731 474.521 300.641 474.453 300.031C474.998 300.345 475.67 300.569 476.054 300.999C476.43 301.419 476.482 302.06 476.731 302.584C477.498 304.196 478.237 305.824 479.119 307.385C479.309 307.72 480.055 307.804 480.545 308.004C480.755 307.587 481.147 307.169 481.142 306.755C481.128 305.466 481.014 304.172 480.843 302.891C480.694 301.78 480.638 300.596 480.151 299.597C478.938 297.104 477.65 294.62 476.102 292.287C475.123 290.811 473.791 289.429 472.313 288.335C470.65 287.104 468.667 286.21 466.783 285.232C464.355 283.973 461.894 282.764 459.427 281.566ZM455.385 275.898C454.126 275.21 452.691 274.797 451.57 275.588C449.023 277.385 446.672 279.471 445.31 282.143C444.158 284.404 443.437 286.845 442.571 289.219C442.445 289.564 442.505 289.994 442.588 290.365C443.08 292.588 444.935 293.688 446.999 294.62C448.088 295.112 448.893 294.868 449.383 293.905C450.415 291.875 451.404 289.826 452.569 287.643C453.278 286.344 454.058 285.072 454.677 283.739C455.459 282.054 456.758 280.61 456.809 278.574C456.843 277.255 456.575 276.548 455.385 275.898ZM396.726 127.106C393.387 125.079 389.887 123.595 385.743 124.072C383.517 124.328 381.325 124.813 379.116 125.188C375.045 125.88 371.441 127.487 368.196 129.747C366.297 131.07 364.442 132.449 362.638 133.875C360.835 135.301 359.032 136.744 357.388 138.313C355.528 140.091 353.825 142.002 352.09 143.883C349.648 146.529 347.212 149.18 344.823 151.864C342.195 154.817 339.702 157.868 337.007 160.769C334.065 163.936 331.012 167.023 327.914 170.068C323.657 174.253 319.325 178.376 314.993 182.499C314.181 183.272 313.098 183.828 312.347 184.639C309.212 188.025 306.258 191.557 304.162 195.546C300.491 202.53 297.074 209.622 293.429 216.617C290.633 221.984 287.555 227.213 283.84 232.148C281.757 234.914 279.715 237.718 276.782 239.735C272.172 242.906 267.323 245.801 262.539 248.766C259.33 250.755 256.79 253.265 255.542 256.571C254.009 260.631 254.793 264.663 256.933 268.363C259.568 272.918 263.738 276.398 267.996 279.716C272.72 283.397 278.21 286.037 284.135 287.734C291.749 289.915 299.407 292.033 307.46 292.651C311.914 292.993 316.334 293.717 320.791 294.015C325.987 294.361 331.206 294.554 336.416 294.58C340.246 294.599 344.077 294.197 347.912 294.062C351.959 293.92 355.793 292.969 359.569 291.768C362.106 290.962 364.455 289.851 365.382 287.4C365.921 285.974 366.189 284.446 366.411 282.944C366.898 279.645 367.395 276.341 367.672 273.024C368.009 268.983 368.126 264.926 368.338 260.592C368.444 259.35 368.482 258.101 368.673 256.87C368.906 255.361 369.365 253.877 369.547 252.365C369.77 250.505 370.015 248.613 369.866 246.76C369.732 245.095 368.944 243.481 368.682 241.814C368.068 237.893 367.515 233.961 367.089 230.02C366.666 226.114 366.404 222.192 366.12 218.274C365.871 214.844 365.64 211.411 365.49 207.975C365.326 204.221 365.256 200.462 365.174 196.705C365.166 196.365 365.383 196.025 365.459 195.679C365.584 195.106 365.817 194.518 365.76 193.956C365.651 192.887 365.164 191.827 365.194 190.771C365.324 186.15 365.573 181.531 365.803 176.913C365.847 176.048 365.972 175.183 366.119 174.326C366.632 171.341 367.171 168.359 367.704 165.377C367.755 165.089 367.832 164.805 367.897 164.519C367.938 164.836 368.008 165.153 368.015 165.471C368.128 170.556 368.232 175.642 368.338 180.727C368.444 185.86 368.562 190.994 368.652 196.127C368.771 202.873 368.817 209.622 368.995 216.367C369.081 219.613 369.312 222.86 369.634 226.095C369.945 229.221 370.444 232.332 370.884 235.447C371.29 238.329 371.798 241.201 372.13 244.09C372.398 246.424 373.654 248.314 375.461 249.81C377.301 251.334 379.468 252.544 381.505 253.876C385.732 256.642 389.896 259.493 394.221 262.131C398.324 264.632 402.605 266.898 406.8 269.278C410.452 271.351 414.065 273.48 417.747 275.509C422.214 277.969 426.68 280.438 431.254 282.733C433.895 284.059 436.736 285.071 439.517 286.16C439.847 286.289 440.607 286.141 440.763 285.906C441.208 285.238 441.466 284.464 441.758 283.72C442.687 281.348 443.864 279.133 445.87 277.286C447.384 275.892 447.171 275.473 445.068 274.682C444.075 274.308 443.055 273.95 442.15 273.439C440.667 272.602 439.225 271.694 437.84 270.731C432.461 266.994 427.025 263.318 421.781 259.433C418.016 256.644 414.438 253.639 410.933 250.585C407.499 247.592 403.796 244.766 401.593 240.824C400.582 239.016 398.95 237.462 399.123 235.173C399.23 233.754 398.902 232.305 398.732 230.874C398.361 227.741 397.777 224.619 397.628 221.478C397.435 217.405 397.58 213.317 397.58 209.236C397.58 208.318 397.484 207.391 397.597 206.484C397.975 203.458 398.359 200.429 398.869 197.419C399.455 193.953 399.952 190.455 400.897 187.062C402.123 182.663 403.851 178.379 405.182 174.001C406.664 169.128 408.672 164.376 409.366 159.314C409.633 157.366 410.603 155.437 410.527 153.522C410.363 149.404 409.08 145.435 407.789 141.474C405.86 135.556 402.514 130.619 396.726 127.106ZM451.297 84.5712C450.844 83.3308 449.754 82.8323 448.332 83.2909C444.969 84.3755 441.525 85.3135 438.298 86.663C435.798 87.7081 433.267 89.0047 431.323 90.7128C429.576 92.2476 424.594 99.9794 424.594 105.734C424.594 107.632 423.965 109.484 423.638 111.357C423.614 111.498 423.505 111.627 423.435 111.762C423.399 111.633 423.355 111.505 423.328 111.375C422.902 109.35 422.569 107.305 422.027 105.306C421.576 103.644 421.075 101.949 420.242 100.425C419.279 98.6619 415.244 97.83 413.26 98.7548C412.128 99.2821 411.585 100.546 412.319 101.465C413.014 102.333 413.866 103.221 414.879 103.738C416.542 104.587 417.083 106.003 417.219 107.391C417.472 110 414.411 113.669 411.436 114.329C408.093 115.071 404.671 115.533 401.272 116.06C400.316 116.209 399.495 116.235 399.791 117.457C400.536 120.54 400.78 123.647 400.155 126.783C400.117 126.973 400.504 127.272 400.751 127.461C401.645 128.145 402.672 128.716 403.449 129.491C404.843 130.882 406.079 132.4 407.425 133.832C407.568 133.984 408.143 134.047 408.281 133.93C409.807 132.626 411.247 131.241 412.787 129.951C414.794 128.27 416.851 126.635 418.933 125.028C419.327 124.724 419.94 124.647 420.451 124.465C420.199 124.984 419.969 125.514 419.677 126.016C419.608 126.135 419.298 126.122 419.158 126.231C418.712 126.58 418.284 126.809 419.25 127.221C420.586 127.79 421.782 128.622 423.037 129.344C428.733 132.622 434.869 134.162 441.662 133.166C445.503 132.602 448.14 130.773 449.311 127.391C450.433 124.152 449.967 123.21 446.507 121.908C444.567 121.179 442.545 120.551 442.036 118.421C441.836 117.584 443.061 116.981 443.814 117.395C443.874 117.428 443.913 117.462 443.922 117.497C444.291 119.006 445.572 119.528 446.922 120.071C449.405 121.071 449.708 120.931 449.708 118.651C449.708 115.666 449.708 115.666 452.635 114.736C454.331 114.198 454.604 113.67 453.834 112.197C452.67 109.972 451.91 107.706 452.232 105.19C452.629 102.09 452.96 98.9798 453.178 95.8661C453.319 93.8652 453.452 91.8175 453.132 89.8505C452.839 88.0491 451.937 86.3265 451.297 84.5712ZM455.394 60.0204C455.151 60.0674 454.842 60.4462 454.817 60.6991C454.564 63.2329 450.412 67.165 440.551 66.5546C430.689 65.9441 434.923 66.2761 432.108 66.2645C429.982 66.2558 422.62 66.8695 421.132 67.246C418.014 68.0342 409.366 68.6715 403.142 74.5028C401.288 76.5186 399.264 78.4303 397.624 80.577C395.609 83.2137 394.391 86.22 393.777 89.3807C393.153 92.5926 393.065 95.8413 394.118 98.9764C395.459 102.97 397.181 106.863 398.461 110.87C398.885 112.197 399.844 112.819 400.905 113.153C405.911 114.731 411.351 112.813 414.46 108.695C415.303 107.578 414.817 107.119 413.96 106.338C412.799 105.28 411.782 104.055 410.918 102.785C409.628 100.889 410.174 98.9566 411.652 97.4257C413.131 95.8935 415.351 95.5532 417.418 96.1952C419.778 96.9287 421.477 98.5432 422.688 100.52C422.771 100.656 422.82 100.809 422.885 100.954C422.926 100.875 422.976 100.797 423.007 100.715C424.122 97.6656 424.994 94.5004 427.17 91.8817C428.595 90.1671 430.131 88.4563 431.94 87.0878C433.491 85.9152 435.459 85.1518 437.318 84.3485C440.226 83.0922 443.11 81.7002 446.17 80.8427C448.898 80.0781 442.749 81.8607 454.154 78.1815C465.559 74.5022 459.692 62.9123 456.315 60.3622C456.064 60.1724 455.665 59.9684 455.394 60.0204ZM447.201 101.808C448.556 101.808 447.902 106.525 446.552 106.068C445.168 105.6 445.829 101.809 447.201 101.808ZM441.78 94.8798C442.436 94.82 448.824 95.9155 451.384 95.9891C452.863 96.0319 451.46 97.4491 451.215 97.4598C447.948 97.584 440.866 95.6544 441.78 94.8798Z" fill="#00160A"/>
<path fill-rule="evenodd" clip-rule="evenodd" d="M406.338 144.723C403.574 143.997 402.918 140.248 400.13 139.6C397.372 138.96 394.722 141.881 391.972 141.214C390.102 140.76 389.228 138.913 388.193 137.449C387.186 136.024 385.063 134.738 383.548 135.657L383.424 135.739C381.322 137.222 378.169 136.285 376.052 134.819C373.935 133.353 372.14 131.377 369.598 130.623C370.932 129.445 373.244 130.3 374.537 131.515C375.829 132.731 376.88 134.332 378.675 134.818C381.425 135.563 384.523 133.279 387.119 134.381C388.733 135.066 389.39 136.76 390.356 138.104C391.322 139.448 393.426 140.574 394.798 139.551C398.128 137.067 404.079 138.642 405.362 142.346C405.734 143.42 407.379 144.996 406.338 144.723Z" fill="#E7EAEE"/>
<path fill-rule="evenodd" clip-rule="evenodd" d="M241.47 426.236C249.149 430.282 273.203 442.202 290.836 442.597L436.683 443.008C436.683 443.008 513.372 418.884 457.302 427.986C454.129 428.501 445.04 433.363 430.427 434.423C403.715 436.36 290.836 435.122 290.836 435.122C290.836 435.122 239.45 425.171 241.47 426.236Z" fill="#E7EAEE"/>
<path fill-rule="evenodd" clip-rule="evenodd" d="M116.216 345.977C116.396 345.798 116.614 345.671 116.749 345.721C118.285 346.29 119.171 345.796 119.637 344.439C119.715 344.214 120.109 344.075 120.357 343.896C120.585 344.168 121.005 344.44 121.006 344.712C121.009 345.617 121.448 346.042 122.409 346.311C122.819 346.426 123.062 347.013 123.38 347.385C123.059 347.451 122.575 347.427 122.452 347.603C122.201 347.96 122.069 348.419 122.032 348.847C121.999 349.21 122.203 349.585 122.238 349.959C122.285 350.451 122.197 350.811 121.549 350.316C120.256 349.327 119.134 349.698 118.03 350.63C117.762 350.857 117.291 350.893 116.913 351.016C116.983 350.709 117.003 350.385 117.129 350.097C117.788 348.588 117.332 347.292 116.216 345.977Z" fill="#F09261"/>
<ellipse cx="433.024" cy="115.344" rx="5.57201" ry="4.984" fill="#F09261"/>
<path fill-rule="evenodd" clip-rule="evenodd" d="M353.298 159.707L353.939 160.591L354.151 160.877C355.494 162.639 357.534 164.371 359.802 163.857C365.84 162.491 372.709 164.876 376.133 169.528C377.825 171.828 381.585 171.377 384.658 170.787L385.063 170.708C388.146 170.097 392.408 170.385 393.187 173.056L393.227 173.21C393.587 174.748 395.752 175.216 397.534 175.176L398.086 175.158C402.567 175.158 403.153 177.362 403.154 177.135C403.154 177.135 393.303 176.467 391.23 173.479L391.103 173.288C389.783 171.22 386.448 171.556 383.84 172.26L383.122 172.46L382.762 172.554C380.216 173.192 377.125 173.423 375.847 171.458C372.915 166.948 366.805 164.268 361.021 164.954C359.532 165.131 357.989 165.505 356.563 165.083C353.153 164.073 352.707 159.363 349.352 158.215C345.119 156.766 341.019 162.27 336.638 161.231C339.303 159.413 342.257 157.934 345.385 156.854C346.433 156.491 347.545 156.169 348.66 156.29C350.726 156.514 352.113 158.102 353.298 159.707ZM407.09 165.141C406.667 166.305 406.356 167.339 406.149 168.216C405.72 165.688 402.91 163.35 400.262 164.168L400.109 164.219C398.428 164.818 396.648 163.575 395.561 162.281L395.3 161.966L394.908 161.485C394.03 160.411 393.084 159.352 391.677 159.047C389.104 158.488 386.834 160.778 384.204 161.052C378.119 161.685 375.077 151.94 369.102 153.149C367.795 153.413 366.665 154.214 365.338 154.376C361.674 154.824 359.709 150.657 356.621 148.837C354.297 147.468 351.018 147.551 348.785 149.035C348.898 146.656 352.516 145.607 354.986 146.502C357.456 147.398 359.151 149.41 361.202 150.932C363.202 152.415 366.169 153.434 368.346 152.227L368.512 152.13C371.131 150.508 374.635 152.565 376.681 154.75L377.424 155.545C379.291 157.533 381.425 159.599 384.224 159.408C386.795 159.233 388.983 157.091 391.533 157.433C395.248 157.933 396.766 163.288 400.501 162.926C402.902 162.693 405.399 163.414 407.194 164.858L407.09 165.141ZM409.019 153.935C408.419 154.687 407.818 155.29 407.215 155.746L407.014 155.893L406.512 155.571C404.069 154.019 401.401 152.509 398.431 152.571C397.346 152.594 396.235 152.828 395.194 152.555C392.43 151.829 391.774 148.08 388.986 147.432C386.228 146.792 383.578 149.713 380.828 149.046C378.957 148.592 378.084 146.745 377.049 145.281C376.042 143.856 373.919 142.57 372.404 143.489L372.279 143.571C370.178 145.054 367.025 144.117 364.908 142.651C362.791 141.185 360.996 139.209 358.454 138.455C359.788 137.277 362.1 138.132 363.392 139.347C364.685 140.563 365.736 142.164 367.531 142.65C370.281 143.395 373.379 141.111 375.975 142.213C377.589 142.898 378.245 144.592 379.212 145.936C380.178 147.28 382.281 148.406 383.654 147.383C386.984 144.899 392.935 146.474 394.218 150.178C394.59 151.252 396.19 151.502 397.425 151.286C398.66 151.07 399.929 150.589 401.129 150.927C402.655 151.357 403.437 152.944 404.907 153.509C406.437 154.096 408.266 153.349 409.289 152.168L409.392 152.044C410.215 151.012 409.83 152.92 409.019 153.935Z" fill="#F09261"/>
<path d="M440.526 274.324C441.581 274.007 442.201 274.072 442.905 274.433L443.086 274.531C443.696 274.865 445.414 274.54 445.499 274.737C445.585 274.933 443.403 275.671 442.603 275.251L442.426 275.156C441.898 274.869 441.554 274.824 440.753 275.064C439.814 275.346 439.355 275.688 438.641 276.522L438.443 276.757C437.723 277.611 437.216 278.031 436.305 278.361C435.179 278.768 434.35 278.877 433.516 278.8L433.341 278.782L432.83 278.713C432.474 278.668 432.253 278.67 431.993 278.732L431.832 278.77C430.742 279.041 428.49 281.621 428.26 281.541C428.07 281.473 430.23 278.397 431.551 278.043L431.829 277.974C432.204 277.885 432.522 277.874 432.929 277.917L433.133 277.942L433.395 277.978C433.521 277.995 433.619 278.007 433.717 278.016C434.389 278.078 435.048 277.991 436.016 277.641C436.665 277.406 437.039 277.112 437.596 276.467L437.795 276.232C438.685 275.173 439.29 274.694 440.526 274.324ZM430.177 268.628C431.232 268.312 431.853 268.376 432.556 268.737L432.739 268.834C433.348 269.169 435.065 268.844 435.152 269.04C435.237 269.237 433.055 269.975 432.255 269.555L432.078 269.459C431.55 269.173 431.206 269.127 430.406 269.367C429.466 269.649 429.007 269.992 428.293 270.826L428.095 271.061C427.375 271.914 426.868 272.335 425.957 272.664C424.831 273.072 424.003 273.182 423.168 273.105L422.994 273.086L422.483 273.018C422.126 272.972 421.904 272.973 421.644 273.035L421.485 273.074C420.394 273.344 418.14 275.928 417.911 275.846C417.723 275.777 419.882 272.701 421.203 272.347L421.481 272.279C421.856 272.189 422.174 272.178 422.581 272.221L422.785 272.246L423.046 272.283C423.173 272.3 423.271 272.312 423.369 272.321C424.04 272.382 424.7 272.295 425.668 271.945C426.317 271.71 426.692 271.416 427.248 270.771L427.448 270.536C428.337 269.478 428.942 268.999 430.177 268.628ZM421.33 262.875C422.386 262.559 423.006 262.623 423.709 262.984L423.892 263.082C424.502 263.416 426.218 263.091 426.305 263.287C426.391 263.484 424.207 264.222 423.408 263.802L423.231 263.707C422.702 263.421 422.359 263.374 421.558 263.615C420.619 263.896 420.161 264.24 419.447 265.074L419.247 265.308C418.528 266.161 418.021 266.582 417.111 266.911C415.985 267.319 415.156 267.429 414.322 267.352L414.146 267.333L413.636 267.265C413.279 267.219 413.057 267.221 412.797 267.283L412.637 267.322C411.546 267.593 409.294 270.173 409.065 270.093C408.875 270.025 411.034 266.948 412.356 266.594L412.634 266.526C413.009 266.436 413.327 266.426 413.734 266.469L413.938 266.493L414.2 266.53C414.326 266.547 414.424 266.559 414.522 266.568C415.193 266.63 415.853 266.543 416.821 266.193C417.47 265.958 417.845 265.663 418.402 265.018L418.6 264.784C419.49 263.725 420.095 263.246 421.33 262.875ZM412.851 256.833C414.207 256.651 414.944 256.848 415.711 257.42L415.909 257.575C416.568 258.096 418.729 258.031 418.787 258.285C418.844 258.54 416.02 259.018 415.15 258.356L414.958 258.206C414.386 257.758 413.98 257.637 412.951 257.775C411.744 257.937 411.105 258.265 410.039 259.14L409.743 259.387C408.665 260.285 407.95 260.698 406.766 260.923C405.302 261.202 404.271 261.176 403.277 260.923L403.069 260.867L402.466 260.687C402.044 260.563 401.775 260.523 401.445 260.548L401.242 260.564C399.854 260.683 396.506 263.383 396.245 263.243C396.03 263.125 399.386 259.805 401.074 259.628L401.427 259.598C401.903 259.561 402.292 259.609 402.776 259.74L403.017 259.809L403.326 259.903C403.475 259.948 403.591 259.98 403.707 260.01C404.507 260.214 405.329 260.235 406.586 259.995C407.43 259.835 407.955 259.55 408.786 258.873L409.082 258.626C410.415 257.512 411.264 257.046 412.851 256.833ZM404.095 250.425C405.451 250.243 406.189 250.441 406.955 251.013L407.153 251.166C407.812 251.688 409.975 251.623 410.032 251.878C410.085 252.133 407.264 252.61 406.394 251.948L406.203 251.798C405.63 251.35 405.224 251.228 404.195 251.367C402.988 251.529 402.349 251.857 401.284 252.732L400.987 252.979C399.91 253.876 399.194 254.289 398.01 254.515C396.546 254.794 395.515 254.768 394.521 254.515L394.313 254.459L393.71 254.279C393.288 254.155 393.019 254.115 392.689 254.14L392.486 254.156C391.098 254.275 387.745 256.978 387.488 256.835C387.276 256.714 390.631 253.396 392.318 253.22L392.671 253.19C393.147 253.153 393.536 253.201 394.02 253.331L394.261 253.401L394.57 253.494C394.719 253.54 394.835 253.573 394.952 253.603C395.752 253.806 396.573 253.827 397.83 253.587C398.674 253.427 399.199 253.141 400.029 252.465L400.327 252.218C401.659 251.104 402.508 250.638 404.095 250.425ZM397.719 242.912C399.425 242.973 400.287 243.393 401.1 244.311L401.308 244.556C402.001 245.384 404.668 245.775 404.683 246.12C404.696 246.466 401.119 246.469 400.2 245.41L399.998 245.172C399.396 244.459 398.925 244.211 397.63 244.164C396.112 244.11 395.254 244.399 393.749 245.308L393.328 245.566C391.805 246.502 390.834 246.884 389.329 246.918C387.469 246.96 386.209 246.698 385.045 246.149L384.802 246.031L384.103 245.661C383.613 245.407 383.291 245.294 382.879 245.254L382.626 245.231C380.896 245.081 376.176 247.873 375.889 247.632C375.653 247.43 380.518 243.828 382.63 243.97L383.072 244.008C383.664 244.065 384.131 244.214 384.696 244.491L384.976 244.634L385.334 244.826C385.508 244.918 385.642 244.987 385.779 245.051C386.716 245.494 387.719 245.701 389.318 245.665C390.39 245.641 391.098 245.384 392.269 244.683L392.69 244.425C394.576 243.263 395.722 242.841 397.719 242.912ZM370.941 234.012C370.747 233.776 376.238 230.985 378.29 231.452L378.718 231.559C379.291 231.707 379.722 231.926 380.224 232.286L380.472 232.471L380.787 232.715C380.94 232.833 381.06 232.921 381.182 233.006C382.019 233.587 382.966 233.948 384.547 234.16C385.608 234.303 386.356 234.161 387.645 233.652L388.109 233.463C390.192 232.611 391.403 232.374 393.356 232.754C395.024 233.079 395.791 233.627 396.413 234.657L396.571 234.93C397.092 235.853 399.646 236.654 399.591 236.996C399.533 237.338 396.014 236.784 395.314 235.6L395.162 235.334C394.707 234.539 394.291 234.221 393.025 233.974C391.54 233.685 390.64 233.836 388.982 234.497L388.517 234.686C386.834 235.371 385.804 235.597 384.316 235.397C382.476 235.149 381.286 234.696 380.246 233.974C380.174 233.924 380.104 233.873 380.031 233.819L379.412 233.346C378.979 233.019 378.684 232.859 378.286 232.756L378.042 232.694C376.367 232.277 371.175 234.295 370.941 234.012ZM370.145 220.484C369.962 220.248 375.148 217.458 377.086 217.925L377.49 218.031C378.03 218.179 378.437 218.398 378.911 218.758L379.147 218.944L379.444 219.187C379.588 219.305 379.701 219.393 379.817 219.478C380.607 220.059 381.502 220.42 382.995 220.633C383.997 220.776 384.703 220.632 385.92 220.123L386.359 219.936C388.326 219.084 389.47 218.846 391.314 219.227C392.889 219.552 393.614 220.099 394.203 221.129L394.351 221.402C394.843 222.325 397.255 223.126 397.203 223.468C397.151 223.81 393.825 223.256 393.163 222.072L393.02 221.806C392.59 221.011 392.198 220.693 391.002 220.447C389.6 220.157 388.749 220.308 387.183 220.969L386.745 221.158C385.155 221.843 384.182 222.069 382.777 221.868C381.039 221.621 379.915 221.168 378.933 220.446C378.865 220.395 378.798 220.345 378.729 220.291L378.146 219.819C377.736 219.492 377.458 219.331 377.082 219.228L376.852 219.165C375.269 218.749 370.366 220.767 370.145 220.484ZM370.145 206.955C369.963 206.719 375.148 203.929 377.086 204.397L377.49 204.503C378.03 204.651 378.437 204.87 378.911 205.23L379.147 205.415L379.444 205.659C379.588 205.776 379.701 205.865 379.817 205.95C380.607 206.531 381.502 206.892 382.995 207.105C383.997 207.248 384.703 207.104 385.92 206.595L386.359 206.408C388.326 205.556 389.47 205.318 391.314 205.699C392.889 206.024 393.614 206.571 394.203 207.601L394.351 207.874C394.843 208.797 397.254 209.597 397.203 209.94C397.152 210.282 393.825 209.729 393.163 208.544L393.02 208.278C392.59 207.483 392.198 207.165 391.002 206.918C389.6 206.629 388.749 206.78 387.183 207.441L386.745 207.63C385.155 208.315 384.182 208.54 382.777 208.34C381.039 208.092 379.915 207.639 378.933 206.917C378.865 206.867 378.798 206.817 378.729 206.763L378.146 206.29C377.736 205.963 377.458 205.802 377.082 205.7L376.852 205.637C375.269 205.221 370.364 207.239 370.145 206.955ZM369.349 195.564C369.156 195.328 374.646 192.538 376.699 193.005L377.125 193.111C377.698 193.259 378.13 193.478 378.632 193.838L378.88 194.023L379.196 194.267C379.349 194.385 379.468 194.473 379.59 194.558C380.427 195.139 381.374 195.5 382.955 195.713C384.016 195.856 384.764 195.712 386.053 195.203L386.517 195.016C388.6 194.164 389.811 193.926 391.764 194.307C393.432 194.632 394.199 195.179 394.822 196.209L394.979 196.482C395.5 197.405 398.054 198.206 397.999 198.548C397.943 198.89 394.422 198.336 393.722 197.152L393.571 196.886C393.116 196.09 392.699 195.772 391.433 195.526C389.948 195.236 389.047 195.388 387.389 196.049L386.925 196.238C385.243 196.923 384.212 197.149 382.724 196.949C380.884 196.701 379.694 196.248 378.655 195.526C378.583 195.476 378.512 195.425 378.439 195.37L377.821 194.899C377.387 194.572 377.092 194.411 376.695 194.308L376.451 194.245C374.775 193.829 369.583 195.847 369.349 195.564ZM369.045 185.095C368.837 184.826 374.758 181.651 376.971 182.183L377.431 182.304C378.048 182.473 378.513 182.721 379.055 183.131L379.323 183.342L379.662 183.619C379.828 183.753 379.957 183.854 380.088 183.951C380.99 184.612 382.012 185.023 383.717 185.265C384.861 185.427 385.667 185.264 387.057 184.685L387.558 184.471C389.804 183.502 391.11 183.231 393.216 183.664C395.015 184.034 395.841 184.657 396.513 185.829L396.683 186.14C397.245 187.19 399.997 188.101 399.94 188.491C399.881 188.88 396.083 188.25 395.328 186.902L395.163 186.6C394.673 185.695 394.224 185.333 392.859 185.052C391.258 184.723 390.286 184.896 388.498 185.648L387.998 185.862C386.184 186.641 385.073 186.899 383.468 186.671C381.484 186.389 380.2 185.873 379.079 185.051C379.002 184.994 378.925 184.937 378.846 184.875L378.18 184.338C377.712 183.966 377.395 183.782 376.966 183.665L376.703 183.595C374.896 183.122 369.3 185.416 369.045 185.095Z" fill="#F09261"/>
</svg>
